<?xml version="1.0" standalone="no"?>
<!DOCTYPE svg PUBLIC "-//W3C//DTD SVG 20010904//EN"
 "http://www.w3.org/TR/2001/REC-SVG-20010904/DTD/svg10.dtd">
<svg version="1.0" xmlns="http://www.w3.org/2000/svg"
 width="64.000000pt" height="64.000000pt" viewBox="0 0 64.000000 64.000000"
 preserveAspectRatio="xMidYMid meet">

<g transform="translate(0.000000,64.000000) scale(0.100000,-0.100000)"
fill="#000000" stroke="none">
<path d="M157 483 c-75 -47 -135 -88 -132 -91 2 -3 11 1 20 8 13 11 15 -5 15
-144 0 -132 -2 -156 -15 -156 -8 0 -15 -4 -15 -10 0 -6 100 -10 280 -10 180 0
280 4 280 10 0 6 -7 10 -15 10 -13 0 -15 24 -15 156 0 139 2 155 15 144 9 -7
18 -11 20 -8 7 7 -271 178 -287 177 -7 0 -75 -39 -151 -86z m268 9 l110 -69 3
-161 2 -162 -230 0 -230 0 2 162 3 162 110 68 c61 37 112 68 115 68 3 0 55
-31 115 -68z"/>
<path d="M223 427 c-77 -45 -88 -65 -48 -87 20 -11 25 -22 27 -64 3 -48 4 -51
33 -54 17 -2 40 -13 53 -25 l22 -20 23 20 c12 12 36 23 52 25 28 3 30 6 33 53
2 38 8 54 24 64 20 12 20 11 13 -48 -6 -57 -6 -61 13 -61 24 0 35 25 22 50 -6
10 -10 37 -10 58 0 39 -1 41 -78 86 -43 25 -85 46 -93 45 -8 0 -46 -19 -86
-42z m182 -27 c2 -4 -18 -10 -45 -14 -28 -4 -50 -11 -50 -16 0 -12 3 -12 74 1
32 6 62 7 66 2 4 -4 -25 -29 -65 -55 l-73 -46 -76 46 c-47 29 -72 50 -66 56 5
5 39 26 76 46 l66 37 44 -24 c24 -14 46 -28 49 -33z m-95 -150 c6 0 28 11 50
25 l40 25 0 -30 c0 -25 -4 -30 -23 -30 -13 0 -32 -9 -42 -20 -23 -25 -37 -25
-53 0 -7 11 -23 20 -37 20 -21 0 -25 5 -25 30 l0 30 40 -25 c22 -14 44 -25 50
-25z m170 15 c0 -14 -4 -25 -10 -25 -11 0 -14 33 -3 43 11 11 13 8 13 -18z"/>
<path d="M100 140 c0 -5 5 -10 10 -10 6 0 10 5 10 10 0 6 -4 10 -10 10 -5 0
-10 -4 -10 -10z"/>
<path d="M150 140 c0 -5 5 -10 10 -10 6 0 10 5 10 10 0 6 -4 10 -10 10 -5 0
-10 -4 -10 -10z"/>
<path d="M200 140 c0 -5 5 -10 10 -10 6 0 10 5 10 10 0 6 -4 10 -10 10 -5 0
-10 -4 -10 -10z"/>
<path d="M250 140 c0 -5 5 -10 10 -10 6 0 10 5 10 10 0 6 -4 10 -10 10 -5 0
-10 -4 -10 -10z"/>
<path d="M300 140 c0 -5 5 -10 10 -10 6 0 10 5 10 10 0 6 -4 10 -10 10 -5 0
-10 -4 -10 -10z"/>
<path d="M350 140 c0 -5 5 -10 10 -10 6 0 10 5 10 10 0 6 -4 10 -10 10 -5 0
-10 -4 -10 -10z"/>
<path d="M400 140 c0 -5 5 -10 10 -10 6 0 10 5 10 10 0 6 -4 10 -10 10 -5 0
-10 -4 -10 -10z"/>
<path d="M450 140 c0 -5 5 -10 10 -10 6 0 10 5 10 10 0 6 -4 10 -10 10 -5 0
-10 -4 -10 -10z"/>
<path d="M500 140 c0 -5 5 -10 10 -10 6 0 10 5 10 10 0 6 -4 10 -10 10 -5 0
-10 -4 -10 -10z"/>
</g>
</svg>
