<?xml version="1.0" standalone="no"?>
<!DOCTYPE svg PUBLIC "-//W3C//DTD SVG 20010904//EN"
 "http://www.w3.org/TR/2001/REC-SVG-20010904/DTD/svg10.dtd">
<svg version="1.0" xmlns="http://www.w3.org/2000/svg"
 width="80.000000pt" height="80.000000pt" viewBox="0 0 80.000000 80.000000"
 preserveAspectRatio="xMidYMid meet">

<g transform="translate(0.000000,80.000000) scale(0.100000,-0.100000)"
fill="#000000" stroke="none">
<path d="M292 712 c-141 -51 -231 -190 -220 -337 10 -117 80 -220 187 -272 48
-24 68 -28 141 -28 73 0 93 4 141 28 67 32 132 99 162 165 16 36 21 67 22 132
0 73 -4 93 -28 141 -32 67 -100 132 -165 162 -66 29 -172 33 -240 9z m245 -35
c58 -30 113 -86 144 -147 33 -64 33 -184 1 -256 -29 -64 -92 -126 -157 -156
-71 -32 -191 -32 -255 1 -61 31 -116 86 -148 146 -22 43 -26 63 -26 135 0 69
4 93 23 130 43 83 122 149 206 171 54 15 159 2 212 -24z"/>
<path d="M390 670 c0 -5 5 -10 10 -10 6 0 10 5 10 10 0 6 -4 10 -10 10 -5 0
-10 -4 -10 -10z"/>
<path d="M200 590 c0 -5 5 -10 10 -10 6 0 10 5 10 10 0 6 -4 10 -10 10 -5 0
-10 -4 -10 -10z"/>
<path d="M580 590 c0 -5 5 -10 10 -10 6 0 10 5 10 10 0 6 -4 10 -10 10 -5 0
-10 -4 -10 -10z"/>
<path d="M300 484 c-100 -40 -111 -49 -85 -67 15 -12 17 -23 12 -64 -6 -54 6
-89 22 -64 5 8 7 37 4 63 -3 26 -2 48 3 48 20 0 32 -16 36 -45 4 -34 25 -43
108 -43 84 0 104 8 108 45 3 26 10 33 48 48 25 9 43 22 41 29 -4 12 -173 85
-197 84 -8 0 -53 -15 -100 -34z m189 -18 c82 -32 84 -33 55 -42 -20 -7 -40 -6
-64 2 -19 7 -55 13 -80 13 -25 0 -61 -6 -80 -13 -24 -8 -44 -9 -64 -2 -29 9
-27 10 55 42 46 18 86 33 89 33 3 0 43 -15 89 -33z m-30 -52 c23 -5 31 -12 31
-28 0 -20 -5 -21 -90 -21 -86 0 -90 1 -90 22 0 14 7 23 23 26 36 7 92 7 126 1z
m1 -74 c0 -6 -27 -10 -60 -10 -33 0 -60 4 -60 10 0 6 27 10 60 10 33 0 60 -4
60 -10z"/>
<path d="M120 400 c0 -5 5 -10 10 -10 6 0 10 5 10 10 0 6 -4 10 -10 10 -5 0
-10 -4 -10 -10z"/>
<path d="M660 400 c0 -5 5 -10 10 -10 6 0 10 5 10 10 0 6 -4 10 -10 10 -5 0
-10 -4 -10 -10z"/>
<path d="M200 210 c0 -5 5 -10 10 -10 6 0 10 5 10 10 0 6 -4 10 -10 10 -5 0
-10 -4 -10 -10z"/>
<path d="M580 210 c0 -5 5 -10 10 -10 6 0 10 5 10 10 0 6 -4 10 -10 10 -5 0
-10 -4 -10 -10z"/>
<path d="M390 130 c0 -5 5 -10 10 -10 6 0 10 5 10 10 0 6 -4 10 -10 10 -5 0
-10 -4 -10 -10z"/>
</g>
</svg>
